<svg width="256" height="256" viewBox="0 0 256 256" fill="none" xmlns="http://www.w3.org/2000/svg">
<path d="M128.001 223.915C180.973 223.915 223.916 180.972 223.916 128C223.916 75.0275 180.973 32.0848 128.001 32.0848C75.0286 32.0848 32.0859 75.0275 32.0859 128C32.0859 180.972 75.0286 223.915 128.001 223.915Z" fill="#039393"/>
<path fill-rule="evenodd" clip-rule="evenodd" d="M140.247 132.163C139.564 132.215 136.03 132.426 128.148 132.426C121.879 132.426 117.427 132.237 115.866 132.163C91.638 131.097 73.5541 126.88 73.5541 121.83C73.5541 116.781 91.638 112.569 115.866 111.486V127.963C117.45 128.077 121.987 128.345 128.256 128.345C135.779 128.345 139.546 128.031 140.225 127.969V111.497C164.401 112.575 182.445 116.792 182.445 121.83C182.445 126.869 164.407 131.086 140.225 132.158L140.247 132.163ZM140.247 109.794V95.0494H173.988V72.5655H82.1258V95.0494H115.86V109.788C88.4406 111.047 67.8203 116.479 67.8203 122.987C67.8203 129.496 88.4406 134.922 115.86 136.187V183.434H140.242V136.17C167.599 134.91 188.184 129.485 188.184 122.982C188.184 116.479 167.616 111.053 140.242 109.788L140.247 109.794Z" fill="white"/>
<path d="M13.5619 134.77C16.9353 192.69 63.3103 239.064 121.23 242.438V255.999C55.8295 252.596 3.40391 200.171 0.000281948 134.77H13.5619ZM256 134.77C252.596 200.171 200.171 252.596 134.771 255.999V242.438C192.69 239.064 239.065 192.69 242.438 134.77H256ZM121.23 13.5617C63.3103 16.935 16.9353 63.31 13.5619 121.229H0C3.40357 55.8292 55.8295 3.4036 121.23 0V13.5617ZM134.771 0C200.171 3.40363 252.596 55.8292 256 121.229H242.438C239.065 63.31 192.69 16.935 134.771 13.5617V0Z" fill="#039393"/>
</svg>
